<svg width="500" height="391" viewBox="0 0 500 391" fill="none" xmlns="http://www.w3.org/2000/svg">
<path d="M144.5 191.085V305C144.5 313.56 137.56 320.5 129 320.5H18C9.43959 320.5 2.5 313.56 2.5 305V191.396C2.5 185.857 5.45616 180.738 10.2543 177.97L23.0743 170.574C25.4296 169.215 28.1009 168.5 30.82 168.5H117.427C120.284 168.5 123.085 169.289 125.521 170.781L137.093 177.866C141.695 180.683 144.5 185.69 144.5 191.085Z" fill="#BFB8B4" stroke="#353540" stroke-width="5"/>
<mask id="path-2-inside-1_2_20" fill="white">
<path d="M13 192C13 177.641 24.6406 166 39 166H109C123.359 166 135 177.641 135 192V262C135 276.359 123.359 288 109 288H39C24.6406 288 13 276.359 13 262V192Z"/>
</mask>
<path d="M13 192C13 177.641 24.6406 166 39 166H109C123.359 166 135 177.641 135 192V262C135 276.359 123.359 288 109 288H39C24.6406 288 13 276.359 13 262V192Z" fill="#EDE4DA"/>
<path d="M13 192C13 174.879 26.8792 161 44 161H104C121.121 161 135 174.879 135 192C135 180.402 123.359 171 109 171H39C24.6406 171 13 180.402 13 192ZM135 262C135 277.464 122.464 290 107 290H41C25.536 290 13 277.464 13 262C13 275.255 24.6406 286 39 286H109C123.359 286 135 275.255 135 262ZM13 288V166V288ZM135 166V288V166Z" fill="#918D8D" mask="url(#path-2-inside-1_2_20)"/>
<path d="M13 192C13 174.879 26.8792 161 44 161H104C121.121 161 135 174.879 135 192C135 180.402 123.359 171 109 171H39C24.6406 171 13 180.402 13 192ZM135 262C135 277.464 122.464 290 107 290H41C25.536 290 13 277.464 13 262C13 275.255 24.6406 286 39 286H109C123.359 286 135 275.255 135 262ZM13 288V166V288ZM135 166V288V166Z" fill="#353540" mask="url(#path-2-inside-1_2_20)"/>
<path d="M63 205.6V215.2H77.4V220H63V244H87V205.6H63ZM77.4 229.6V234.4H72.6V229.6H77.4Z" fill="#353540"/>
<path d="M40.2 371.4H30.6V361.8H21V352.2H30.6V342.6H40.2V371.4ZM54.6 333V381H45V333H54.6ZM83.4375 381V371.4H69.0375V366.6H83.4375V342.6H59.4375V381H83.4375ZM69.0375 357V352.2H73.8375V357H69.0375ZM102.619 333H88.2188V381H97.8188V361.8H102.619V352.2H97.8188V342.6H102.619V333ZM121.838 371.4H117.038V352.2H121.838V342.6H117.038V333H107.438V381H121.838V371.4Z" fill="#353540"/>
<path d="M457.5 191.085V305C457.5 313.56 450.56 320.5 442 320.5H331C322.44 320.5 315.5 313.56 315.5 305V191.396C315.5 185.857 318.456 180.738 323.254 177.97L336.074 170.574C338.43 169.215 341.101 168.5 343.82 168.5H430.427C433.284 168.5 436.085 169.289 438.521 170.781L450.093 177.866C454.695 180.683 457.5 185.69 457.5 191.085Z" fill="#BFB8B4" stroke="#353540" stroke-width="5"/>
<mask id="path-7-inside-2_2_20" fill="white">
<path d="M326 192C326 177.641 337.641 166 352 166H422C436.359 166 448 177.641 448 192V262C448 276.359 436.359 288 422 288H352C337.641 288 326 276.359 326 262V192Z"/>
</mask>
<path d="M326 192C326 177.641 337.641 166 352 166H422C436.359 166 448 177.641 448 192V262C448 276.359 436.359 288 422 288H352C337.641 288 326 276.359 326 262V192Z" fill="#EDE4DA"/>
<path d="M326 192C326 174.879 339.879 161 357 161H417C434.121 161 448 174.879 448 192C448 180.402 436.359 171 422 171H352C337.641 171 326 180.402 326 192ZM448 262C448 277.464 435.464 290 420 290H354C338.536 290 326 277.464 326 262C326 275.255 337.641 286 352 286H422C436.359 286 448 275.255 448 262ZM326 288V166V288ZM448 166V288V166Z" fill="#918D8D" mask="url(#path-7-inside-2_2_20)"/>
<path d="M326 192C326 174.879 339.879 161 357 161H417C434.121 161 448 174.879 448 192C448 180.402 436.359 171 422 171H352C337.641 171 326 180.402 326 192ZM448 262C448 277.464 435.464 290 420 290H354C338.536 290 326 277.464 326 262C326 275.255 337.641 286 352 286H422C436.359 286 448 275.255 448 262ZM326 288V166V288ZM448 166V288V166Z" fill="#353540" mask="url(#path-7-inside-2_2_20)"/>
<path d="M390.4 196V205.6H376V244H400V196H390.4ZM390.4 215.2V234.4H385.6V215.2H390.4Z" fill="#353540"/>
<path d="M348.4 342.6V352.2H343.6V381H334V342.6H348.4ZM362.819 328.2V337.8H353.219V328.2H362.819ZM362.819 342.6V381H353.219V342.6H362.819ZM391.656 390.6V342.6H367.656V376.2H382.056V381H367.656V390.6H391.656ZM377.256 366.6V352.2H382.056V366.6H377.256ZM396.438 333V381H406.038V352.2H410.838V381H420.438V342.6H406.038V333H396.438ZM439.619 371.4H434.819V352.2H439.619V342.6H434.819V333H425.219V381H439.619V371.4ZM444.438 342.6H454.038V352.2H463.638V361.8H454.038V371.4H444.438V342.6Z" fill="#353540"/>
<path d="M301.5 191.085V305C301.5 313.56 294.56 320.5 286 320.5H175C166.44 320.5 159.5 313.56 159.5 305V191.396C159.5 185.857 162.456 180.738 167.254 177.97L180.074 170.574C182.43 169.215 185.101 168.5 187.82 168.5H274.427C277.284 168.5 280.085 169.289 282.521 170.781L294.093 177.866C298.695 180.683 301.5 185.69 301.5 191.085Z" fill="#BFB8B4" stroke="#353540" stroke-width="5"/>
<mask id="path-12-inside-3_2_20" fill="white">
<path d="M170 192C170 177.641 181.641 166 196 166H266C280.359 166 292 177.641 292 192V262C292 276.359 280.359 288 266 288H196C181.641 288 170 276.359 170 262V192Z"/>
</mask>
<path d="M170 192C170 177.641 181.641 166 196 166H266C280.359 166 292 177.641 292 192V262C292 276.359 280.359 288 266 288H196C181.641 288 170 276.359 170 262V192Z" fill="#EDE4DA"/>
<path d="M170 192C170 174.879 183.879 161 201 161H261C278.121 161 292 174.879 292 192C292 180.402 280.359 171 266 171H196C181.641 171 170 180.402 170 192ZM292 262C292 277.464 279.464 290 264 290H198C182.536 290 170 277.464 170 262C170 275.255 181.641 286 196 286H266C280.359 286 292 275.255 292 262ZM170 288V166V288ZM292 166V288V166Z" fill="#918D8D" mask="url(#path-12-inside-3_2_20)"/>
<path d="M170 192C170 174.879 183.879 161 201 161H261C278.121 161 292 174.879 292 192C292 180.402 280.359 171 266 171H196C181.641 171 170 180.402 170 192ZM292 262C292 277.464 279.464 290 264 290H198C182.536 290 170 277.464 170 262C170 275.255 181.641 286 196 286H266C280.359 286 292 275.255 292 262ZM170 288V166V288ZM292 166V288V166Z" fill="#353540" mask="url(#path-12-inside-3_2_20)"/>
<path d="M220 205.6V229.6H234.4V234.4H220V244H244V220H229.6V215.2H244V205.6H220Z" fill="#353540"/>
<path d="M184.4 333V342.6H170V381H194V333H184.4ZM184.4 352.2V371.4H179.6V352.2H184.4ZM198.781 342.6V381H222.781V342.6H198.781ZM213.181 352.2V371.4H208.381V352.2H213.181ZM237.067 342.6V371.4H241.963V342.6H251.562V371.4H256.363V342.6H265.963V381H227.466V342.6H237.067ZM270.781 342.6V381H280.381V352.2H285.181V381H294.781V342.6H270.781Z" fill="#353540"/>
<path d="M250.5 25.0853V139C250.5 147.56 243.56 154.5 235 154.5H124C115.44 154.5 108.5 147.56 108.5 139V25.3962C108.5 19.8568 111.456 14.7384 116.254 11.9703L129.074 4.57412C131.43 3.21531 134.101 2.5 136.82 2.5H223.427C226.284 2.5 229.085 3.28932 231.521 4.78081L243.093 11.8661C247.695 14.6832 250.5 19.6901 250.5 25.0853Z" fill="#BFB8B4" stroke="#353540" stroke-width="5"/>
<mask id="path-17-inside-4_2_20" fill="white">
<path d="M119 26C119 11.6406 130.641 0 145 0H215C229.359 0 241 11.6406 241 26V96C241 110.359 229.359 122 215 122H145C130.641 122 119 110.359 119 96V26Z"/>
</mask>
<path d="M119 26C119 11.6406 130.641 0 145 0H215C229.359 0 241 11.6406 241 26V96C241 110.359 229.359 122 215 122H145C130.641 122 119 110.359 119 96V26Z" fill="#EDE4DA"/>
<path d="M119 26C119 8.87917 132.879 -5 150 -5H210C227.121 -5 241 8.87917 241 26C241 14.402 229.359 5 215 5H145C130.641 5 119 14.402 119 26ZM241 96C241 111.464 228.464 124 213 124H147C131.536 124 119 111.464 119 96C119 109.255 130.641 120 145 120H215C229.359 120 241 109.255 241 96ZM119 122V0V122ZM241 0V122V0Z" fill="#918D8D" mask="url(#path-17-inside-4_2_20)"/>
<path d="M119 26C119 8.87917 132.879 -5 150 -5H210C227.121 -5 241 8.87917 241 26C241 14.402 229.359 5 215 5H145C130.641 5 119 14.402 119 26ZM241 96C241 111.464 228.464 124 213 124H147C131.536 124 119 111.464 119 96C119 109.255 130.641 120 145 120H215C229.359 120 241 109.255 241 96ZM119 122V0V122ZM241 0V122V0Z" fill="#353540" mask="url(#path-17-inside-4_2_20)"/>
<path d="M170.504 39.6V68.4H175.4V39.6H185V68.4H189.8V39.6H199.4V78H160.904V39.6H170.504Z" fill="#353540"/>
<path d="M24 46.6V37H33.6V27.4H43.2V37H52.8V46.6H24ZM48 128V89.6H38.4V118.4H33.6V89.6H24V128H48ZM62.3813 137.6V127.904L76.7812 128V89.6H52.7812V137.6H62.3813ZM62.3813 118.304V99.2H67.1813V118.304H62.3813Z" fill="#353540"/>
</svg>
